<?xml version="1.0" standalone="no"?>
<!DOCTYPE svg PUBLIC "-//W3C//DTD SVG 20010904//EN"
 "http://www.w3.org/TR/2001/REC-SVG-20010904/DTD/svg10.dtd">
<svg version="1.0" xmlns="http://www.w3.org/2000/svg"
 width="900.000000pt" height="594.000000pt" viewBox="0 0 900.000000 594.000000"
 preserveAspectRatio="xMidYMid meet">

<g transform="translate(0.000000,594.000000) scale(0.100000,-0.100000)"
fill="#000000" stroke="none">
<path d="M5318 5813 c-92 -178 -220 -450 -510 -1083 -236 -517 -447 -953 -558
-1157 -55 -101 -65 -107 -122 -77 -39 20 -141 95 -338 249 -413 322 -641 491
-715 528 -70 35 -66 37 -167 -85 -110 -133 -268 -332 -320 -403 -35 -50 -92
-155 -86 -160 2 -1 98 -58 213 -127 427 -254 691 -426 950 -620 108 -81 110
-84 108 -121 -2 -63 -107 -256 -716 -1317 -454 -791 -442 -771 -591 -995 -135
-204 -269 -429 -257 -433 6 -2 45 6 88 18 230 63 510 254 784 536 130 134 207
229 569 703 262 343 320 410 450 521 72 61 77 68 125 179 57 131 163 304 182
296 29 -10 251 -159 281 -188 19 -18 47 -50 62 -72 25 -35 44 -47 159 -94 124
-52 132 -57 166 -106 87 -127 517 -418 1213 -819 210 -121 321 -179 443 -231
l76 -33 -34 116 c-108 360 -192 492 -606 946 -200 219 -216 232 -935 836 -405
340 -471 399 -471 422 -2 56 159 329 951 1623 337 550 482 782 608 972 108
161 108 162 82 167 -38 8 -454 71 -662 100 -96 14 -215 28 -265 31 l-90 7 -67
-129z"/>
</g>
</svg>
