<?xml version="1.0" standalone="no"?>
<!DOCTYPE svg PUBLIC "-//W3C//DTD SVG 20010904//EN"
 "http://www.w3.org/TR/2001/REC-SVG-20010904/DTD/svg10.dtd">
<svg version="1.0" xmlns="http://www.w3.org/2000/svg"
 width="286.000000pt" height="176.000000pt" viewBox="0 0 286.000000 176.000000"
 preserveAspectRatio="xMidYMid meet">

<g transform="translate(0.000000,176.000000) scale(0.100000,-0.100000)"
fill="#000000" stroke="none">
<path d="M1466 838 l-18 -33 21 25 c18 22 26 40 18 40 -1 0 -11 -15 -21 -32z"/>
<path d="M1396 703 c-6 -14 -5 -15 5 -6 7 7 10 15 7 18 -3 3 -9 -2 -12 -12z"/>
<path d="M1260 701 c0 -6 4 -12 9 -15 4 -3 8 -42 8 -86 0 -60 4 -85 15 -97 14
-14 17 -11 28 23 7 22 19 48 26 59 18 26 18 44 0 20 -13 -18 -16 -15 -45 43
-30 59 -41 73 -41 53z"/>
<path d="M1376 665 c-9 -26 -7 -32 5 -12 6 10 9 21 6 23 -2 3 -7 -2 -11 -11z"/>
<path d="M1649 543 c-13 -16 -12 -17 4 -4 16 13 21 21 13 21 -2 0 -10 -8 -17
-17z"/>
<path d="M896 522 c5 -4 25 -21 44 -37 29 -25 32 -26 15 -5 -25 31 -47 49 -59
50 -7 0 -7 -3 0 -8z"/>
<path d="M1614 498 l-19 -23 23 19 c21 18 27 26 19 26 -2 0 -12 -10 -23 -22z"/>
<path d="M1570 471 c0 -5 5 -13 10 -16 6 -3 10 -2 10 4 0 5 -4 13 -10 16 -5 3
-10 2 -10 -4z"/>
<path d="M1010 455 c-10 -12 2 -28 65 -92 43 -43 100 -104 127 -135 46 -52 98
-88 128 -88 15 0 101 90 95 100 -3 4 -19 10 -36 12 -27 4 -29 3 -16 -7 21 -15
21 -22 2 -22 -9 0 -18 12 -21 26 -12 53 -13 55 -33 32 -19 -22 -41 -28 -41
-11 0 6 -18 10 -40 10 -31 0 -40 -4 -40 -17 0 -14 -2 -15 -9 -5 -4 8 -7 24 -6
36 2 19 -2 22 -26 21 -20 -1 -30 4 -35 17 -3 10 -8 18 -12 18 -4 0 -27 18 -51
40 -35 32 -41 43 -32 54 7 8 8 17 3 20 -6 3 -15 -1 -22 -9z m236 -230 c3 -18
-8 -19 -23 -4 -6 6 -9 18 -6 26 7 17 25 3 29 -22z m27 -15 c-3 -11 -9 -20 -14
-20 -7 0 -7 18 0 48 1 2 5 1 10 -2 5 -3 7 -15 4 -26z"/>
<path d="M1541 423 c4 -20 -2 -27 -12 -13 -9 13 -10 13 -6 0 2 -8 -5 -25 -16
-37 -11 -13 -18 -25 -15 -28 2 -3 19 13 36 34 19 24 28 42 22 46 -6 4 -10 3
-9 -2z"/>
<path d="M1467 329 c6 -20 3 -21 -21 -15 -21 5 -27 3 -23 -6 2 -7 12 -12 22
-10 11 2 14 -1 10 -8 -4 -7 -18 -9 -31 -6 -28 7 -32 -4 -6 -20 15 -10 22 -6
45 26 22 32 24 40 13 49 -12 10 -13 8 -9 -10z"/>
</g>
</svg>
